<mxfile host="app.diagrams.net" modified="2021-10-29T13:41:28.057Z" agent="5.0 (Macintosh; Intel Mac OS X 10_15_7) AppleWebKit/537.36 (KHTML, like Gecko) Chrome/95.0.4638.54 Safari/537.36" etag="MiG0OYLTO3JuYX35g8bI" version="15.4.3" type="github">
  <diagram id="Q1_Nbqgk_0888wRoUbuO" name="Page-1">
    <mxGraphModel dx="1426" dy="751" grid="1" gridSize="10" guides="1" tooltips="1" connect="1" arrows="1" fold="1" page="1" pageScale="1" pageWidth="827" pageHeight="1169" math="0" shadow="0">
      <root>
        <mxCell id="0" />
        <mxCell id="1" parent="0" />
        <mxCell id="9cHv4V8jAmNeDaQ6r9MS-12" style="edgeStyle=orthogonalEdgeStyle;rounded=0;orthogonalLoop=1;jettySize=auto;html=1;" edge="1" parent="1" source="9cHv4V8jAmNeDaQ6r9MS-1" target="9cHv4V8jAmNeDaQ6r9MS-6">
          <mxGeometry relative="1" as="geometry" />
        </mxCell>
        <mxCell id="9cHv4V8jAmNeDaQ6r9MS-13" value="&lt;font style=&quot;font-size: 10px&quot;&gt;WEBSITE_RUN_FROM_PACKAGE&lt;/font&gt;" style="edgeLabel;html=1;align=center;verticalAlign=middle;resizable=0;points=[];" vertex="1" connectable="0" parent="9cHv4V8jAmNeDaQ6r9MS-12">
          <mxGeometry x="0.1287" y="-1" relative="1" as="geometry">
            <mxPoint x="14" y="1" as="offset" />
          </mxGeometry>
        </mxCell>
        <mxCell id="9cHv4V8jAmNeDaQ6r9MS-1" value="SSHKeyGen&amp;nbsp;&lt;br&gt;Function &lt;br&gt;App" style="aspect=fixed;html=1;points=[];align=center;image;fontSize=12;image=img/lib/azure2/compute/Function_Apps.svg;labelPosition=center;verticalLabelPosition=top;verticalAlign=bottom;" vertex="1" parent="1">
          <mxGeometry x="456" y="139" width="68" height="60" as="geometry" />
        </mxCell>
        <mxCell id="9cHv4V8jAmNeDaQ6r9MS-4" value="" style="rounded=0;whiteSpace=wrap;html=1;" vertex="1" parent="1">
          <mxGeometry x="40" y="360" width="950" height="170" as="geometry" />
        </mxCell>
        <mxCell id="9cHv4V8jAmNeDaQ6r9MS-2" value="POST &lt;br&gt;{&quot;secretName&quot;: &quot;name&quot;}" style="text;html=1;resizable=0;autosize=1;align=center;verticalAlign=middle;points=[];fillColor=none;strokeColor=none;rounded=0;" vertex="1" parent="1">
          <mxGeometry x="530" y="270" width="140" height="30" as="geometry" />
        </mxCell>
        <mxCell id="9cHv4V8jAmNeDaQ6r9MS-11" style="edgeStyle=orthogonalEdgeStyle;rounded=0;orthogonalLoop=1;jettySize=auto;html=1;" edge="1" parent="1" source="9cHv4V8jAmNeDaQ6r9MS-3" target="9cHv4V8jAmNeDaQ6r9MS-1">
          <mxGeometry relative="1" as="geometry" />
        </mxCell>
        <mxCell id="9cHv4V8jAmNeDaQ6r9MS-3" value="Build Function App" style="rounded=0;whiteSpace=wrap;html=1;" vertex="1" parent="1">
          <mxGeometry x="430" y="415" width="120" height="60" as="geometry" />
        </mxCell>
        <mxCell id="9cHv4V8jAmNeDaQ6r9MS-5" value="Terraform" style="text;html=1;resizable=0;autosize=1;align=center;verticalAlign=middle;points=[];fillColor=none;strokeColor=none;rounded=0;fontStyle=1" vertex="1" parent="1">
          <mxGeometry x="910" y="370" width="70" height="20" as="geometry" />
        </mxCell>
        <mxCell id="9cHv4V8jAmNeDaQ6r9MS-6" value="Storage Account" style="sketch=0;points=[[0,0,0],[0.25,0,0],[0.5,0,0],[0.75,0,0],[1,0,0],[0,1,0],[0.25,1,0],[0.5,1,0],[0.75,1,0],[1,1,0],[0,0.25,0],[0,0.5,0],[0,0.75,0],[1,0.25,0],[1,0.5,0],[1,0.75,0]];outlineConnect=0;fontColor=#232F3E;gradientColor=#60A337;gradientDirection=north;fillColor=#277116;strokeColor=#ffffff;dashed=0;verticalLabelPosition=top;verticalAlign=bottom;align=center;html=1;fontSize=12;fontStyle=0;aspect=fixed;shape=mxgraph.aws4.resourceIcon;resIcon=mxgraph.aws4.storage;labelPosition=center;" vertex="1" parent="1">
          <mxGeometry x="190" y="130" width="78" height="78" as="geometry" />
        </mxCell>
        <mxCell id="9cHv4V8jAmNeDaQ6r9MS-9" style="edgeStyle=orthogonalEdgeStyle;rounded=0;orthogonalLoop=1;jettySize=auto;html=1;entryX=0.5;entryY=1;entryDx=0;entryDy=0;entryPerimeter=0;" edge="1" parent="1" source="9cHv4V8jAmNeDaQ6r9MS-7" target="9cHv4V8jAmNeDaQ6r9MS-6">
          <mxGeometry relative="1" as="geometry" />
        </mxCell>
        <mxCell id="9cHv4V8jAmNeDaQ6r9MS-7" value="Upload Blob to Storage Account" style="rounded=0;whiteSpace=wrap;html=1;" vertex="1" parent="1">
          <mxGeometry x="253.5" y="415" width="120" height="60" as="geometry" />
        </mxCell>
        <mxCell id="9cHv4V8jAmNeDaQ6r9MS-8" value="Create Storage Account" style="rounded=0;whiteSpace=wrap;html=1;" vertex="1" parent="1">
          <mxGeometry x="80" y="415" width="120" height="60" as="geometry" />
        </mxCell>
        <mxCell id="9cHv4V8jAmNeDaQ6r9MS-15" style="edgeStyle=orthogonalEdgeStyle;rounded=0;orthogonalLoop=1;jettySize=auto;html=1;fontSize=10;exitX=0.5;exitY=0;exitDx=0;exitDy=0;" edge="1" parent="1" source="9cHv4V8jAmNeDaQ6r9MS-14" target="9cHv4V8jAmNeDaQ6r9MS-1">
          <mxGeometry relative="1" as="geometry" />
        </mxCell>
        <mxCell id="9cHv4V8jAmNeDaQ6r9MS-14" value="Request a Key" style="rounded=0;whiteSpace=wrap;html=1;" vertex="1" parent="1">
          <mxGeometry x="610" y="415" width="120" height="60" as="geometry" />
        </mxCell>
        <mxCell id="9cHv4V8jAmNeDaQ6r9MS-16" value="Data object with secret URLs" style="rounded=0;whiteSpace=wrap;html=1;" vertex="1" parent="1">
          <mxGeometry x="790" y="415" width="120" height="60" as="geometry" />
        </mxCell>
        <mxCell id="9cHv4V8jAmNeDaQ6r9MS-17" style="edgeStyle=orthogonalEdgeStyle;rounded=0;orthogonalLoop=1;jettySize=auto;html=1;entryX=0.5;entryY=0;entryDx=0;entryDy=0;fontSize=10;" edge="1" parent="1" source="9cHv4V8jAmNeDaQ6r9MS-1" target="9cHv4V8jAmNeDaQ6r9MS-16">
          <mxGeometry relative="1" as="geometry" />
        </mxCell>
      </root>
    </mxGraphModel>
  </diagram>
</mxfile>
